<svg width="101" height="40" viewBox="0 0 101 40" fill="none" xmlns="http://www.w3.org/2000/svg">
<path d="M17.6913 0.357971C18.3333 0.357971 18.832 0.497294 19.1861 0.774638C19.5429 1.05328 19.7226 1.43479 19.7226 1.92047C19.7226 2.16396 19.6874 2.39834 19.6184 2.6236L18.9413 5.04547C18.8189 5.51422 18.6405 5.84104 18.4049 6.02464C18.1718 6.20563 17.8385 6.29547 17.4049 6.29547C16.9882 6.29547 16.6614 6.20563 16.4257 6.02464C16.1926 5.84104 16.0155 5.54026 15.8945 5.1236L15.4778 3.63922C15.3905 3.32672 15.2864 3.11839 15.1653 3.01422C15.0429 2.91005 14.8085 2.85797 14.4622 2.85797H11.7278L10.4257 7.49339H11.5715C11.6926 7.49339 11.858 7.40745 12.0663 7.23297L12.9517 6.45172C13.2122 6.22646 13.4374 6.0611 13.6288 5.95693C13.8189 5.85276 14.0533 5.80068 14.332 5.80068C14.6445 5.80068 14.8997 5.88401 15.0976 6.05068C15.2981 6.21474 15.3997 6.42568 15.3997 6.6861C15.3997 6.75641 15.3814 6.86058 15.3476 6.9986L14.2799 10.6184C14.1757 11.0012 13.996 11.2838 13.7434 11.4673C13.4934 11.6483 13.22 11.7382 12.9257 11.7382C12.4387 11.7382 12.0741 11.4869 11.832 10.983L11.3892 10.0715C11.2668 9.8111 11.0767 9.68089 10.8163 9.68089H9.8007L8.26424 15.2017H10.5559C10.8853 15.2017 11.1757 15.1379 11.4257 15.009C11.6783 14.8775 11.953 14.647 12.2486 14.3163L13.8111 12.5976C14.0885 12.3033 14.3528 12.091 14.6028 11.9621C14.8554 11.8306 15.1653 11.7642 15.5299 11.7642C15.9114 11.7642 16.2239 11.8515 16.4674 12.0246C16.7096 12.1991 16.832 12.4595 16.832 12.8059C16.832 12.9452 16.8059 13.1106 16.7538 13.3007L15.9986 15.9309C15.8072 16.591 15.5299 17.0507 15.1653 17.3111C14.8007 17.5715 14.2708 17.7017 13.5767 17.7017H1.15487C0.790283 17.7017 0.509033 17.6418 0.311117 17.5194C0.110596 17.3983 0.0090332 17.233 0.0090332 17.0246C0.0090332 16.9205 0.0350749 16.8085 0.0871582 16.6861C0.157471 16.496 0.26945 16.3476 0.4257 16.2434C0.58195 16.1392 0.678304 16.0793 0.712158 16.0611C0.989502 15.8879 1.21476 15.7108 1.38924 15.5298C1.56242 15.3463 1.70955 15.0455 1.83195 14.6288L5.03508 3.40485C5.10409 3.17959 5.13924 2.97125 5.13924 2.77985C5.13924 2.57151 5.10799 2.39834 5.04549 2.25901C4.9856 2.12099 4.89575 1.97255 4.77466 1.8163C4.61841 1.59104 4.54028 1.40875 4.54028 1.26943C4.54028 1.21735 4.55721 1.12229 4.59237 0.982971C4.66138 0.757711 4.81763 0.597555 5.06112 0.503805C5.3033 0.407451 5.66008 0.357971 6.12883 0.357971H17.6913Z" fill="white"/>
<path d="M41.5468 2.85798C41.5468 3.48298 41.4114 4.02204 41.1405 4.47256C40.8723 4.92439 40.5312 5.26814 40.1145 5.50381C39.6978 5.73689 39.2812 5.85277 38.8645 5.85277C38.4478 5.85277 38.0689 5.76684 37.7291 5.59236C37.3918 5.41918 37.1106 5.1848 36.8853 4.88923L30.6093 15.4621C30.1405 16.2616 29.7056 16.8345 29.3072 17.1809C28.9075 17.5286 28.4556 17.7017 27.953 17.7017C27.414 17.7017 26.9843 17.5246 26.6614 17.1705C26.3411 16.8137 26.1119 16.2434 25.9739 15.4621L23.7864 3.4309C23.7343 3.1184 23.6379 2.8671 23.4999 2.67569C23.3606 2.48559 23.1783 2.27725 22.953 2.05069C22.7786 1.89444 22.6575 1.76944 22.5884 1.67569C22.5181 1.57934 22.4843 1.46085 22.4843 1.32152C22.397 0.679596 22.7786 0.357981 23.6301 0.357981H30.1405C30.539 0.357981 30.8437 0.441315 31.052 0.607981C31.2603 0.772044 31.3554 0.992096 31.3384 1.26944C31.3384 1.42569 31.3072 1.5559 31.2447 1.66006C31.1848 1.76423 31.0858 1.89444 30.9478 2.05069C30.7916 2.22517 30.6692 2.38923 30.5832 2.54548C30.496 2.70173 30.453 2.89314 30.453 3.1184C30.453 3.22256 30.4608 3.3098 30.4791 3.37881L31.4687 9.44652L34.9322 3.30069C35.539 2.19001 36.1379 1.40486 36.7291 0.946523C37.3189 0.485585 38.0481 0.253815 38.9166 0.253815C39.7148 0.253815 40.3515 0.485585 40.828 0.946523C41.3072 1.40486 41.5468 2.04288 41.5468 2.85798Z" fill="#0066AE"/>
<path d="M56.703 0.357971C57.345 0.357971 57.8437 0.497294 58.1978 0.774638C58.5546 1.05328 58.7343 1.43479 58.7343 1.92047C58.7343 2.16396 58.6991 2.39834 58.6301 2.6236L57.953 5.04547C57.8306 5.51422 57.6523 5.84104 57.4166 6.02464C57.1835 6.20563 56.8502 6.29547 56.4166 6.29547C55.9999 6.29547 55.6731 6.20563 55.4374 6.02464C55.2043 5.84104 55.0273 5.54026 54.9062 5.1236L54.4895 3.63922C54.4023 3.32672 54.2981 3.11839 54.177 3.01422C54.0546 2.91005 53.8202 2.85797 53.4739 2.85797H50.7395L49.4374 7.49339H50.5833C50.7043 7.49339 50.8697 7.40745 51.078 7.23297L51.9635 6.45172C52.2239 6.22646 52.4491 6.0611 52.6405 5.95693C52.8306 5.85276 53.065 5.80068 53.3437 5.80068C53.6562 5.80068 53.9114 5.88401 54.1093 6.05068C54.3098 6.21474 54.4114 6.42568 54.4114 6.6861C54.4114 6.75641 54.3931 6.86058 54.3593 6.9986L53.2916 10.6184C53.1874 11.0012 53.0077 11.2838 52.7551 11.4673C52.5051 11.6483 52.2317 11.7382 51.9374 11.7382C51.4504 11.7382 51.0859 11.4869 50.8437 10.983L50.401 10.0715C50.2786 9.8111 50.0885 9.68089 49.828 9.68089H48.8124L47.276 15.2017H49.5676C49.8971 15.2017 50.1874 15.1379 50.4374 15.009C50.69 14.8775 50.9648 14.647 51.2603 14.3163L52.8228 12.5976C53.1002 12.3033 53.3645 12.091 53.6145 11.9621C53.8671 11.8306 54.177 11.7642 54.5416 11.7642C54.9231 11.7642 55.2356 11.8515 55.4791 12.0246C55.7213 12.1991 55.8437 12.4595 55.8437 12.8059C55.8437 12.9452 55.8176 13.1106 55.7655 13.3007L55.0103 15.9309C54.8189 16.591 54.5416 17.0507 54.177 17.3111C53.8124 17.5715 53.2825 17.7017 52.5885 17.7017H40.1666C39.802 17.7017 39.5208 17.6418 39.3228 17.5194C39.1223 17.3983 39.0208 17.233 39.0208 17.0246C39.0208 16.9205 39.0468 16.8085 39.0989 16.6861C39.1692 16.496 39.2812 16.3476 39.4374 16.2434C39.5937 16.1392 39.69 16.0793 39.7239 16.0611C40.0012 15.8879 40.2265 15.7108 40.401 15.5298C40.5741 15.3463 40.7213 15.0455 40.8437 14.6288L44.0468 3.40485C44.1158 3.17959 44.151 2.97125 44.151 2.77985C44.151 2.57151 44.1197 2.39834 44.0572 2.25901C43.9973 2.12099 43.9075 1.97255 43.7864 1.8163C43.6301 1.59104 43.552 1.40875 43.552 1.26943C43.552 1.21735 43.5689 1.12229 43.6041 0.982971C43.6731 0.757711 43.8293 0.597555 44.0728 0.503805C44.315 0.407451 44.6718 0.357971 45.1405 0.357971H56.703Z" fill="white"/>
<path d="M78.6805 0.357971C79.3914 0.357971 79.7482 0.584534 79.7482 1.03505C79.7482 1.15745 79.7391 1.24339 79.7221 1.29547C79.67 1.46995 79.5919 1.60537 79.4878 1.70172C79.3836 1.79547 79.2351 1.90354 79.045 2.02464C78.7846 2.18089 78.5672 2.35537 78.394 2.54547C78.2195 2.73688 78.0724 3.03245 77.9513 3.43089L74.7221 14.9934C74.4266 16.0351 74.0568 16.7642 73.6128 17.1809C73.1713 17.5976 72.5607 17.8059 71.7794 17.8059C71.0841 17.8059 70.506 17.6028 70.045 17.1965C69.5867 16.7877 69.157 16.1575 68.7586 15.3059L64.8263 7.02464L62.6388 14.6288C62.5867 14.8554 62.5607 15.0546 62.5607 15.2278C62.5607 15.4543 62.5984 15.6418 62.6753 15.7903C62.7547 15.9361 62.8641 16.0871 63.0034 16.2434C63.1935 16.47 63.2898 16.6601 63.2898 16.8163C63.2898 16.9205 63.2807 16.9986 63.2638 17.0507C63.1935 17.2942 63.0372 17.4647 62.795 17.5611C62.5516 17.6548 62.187 17.7017 61.7013 17.7017H58.8628C58.1518 17.7017 57.795 17.4765 57.795 17.0246C57.795 16.9035 57.8042 16.8163 57.8211 16.7642C57.8732 16.591 57.9513 16.4569 58.0555 16.3632C58.1596 16.2668 58.3081 16.1575 58.4982 16.0351C58.7586 15.8788 58.9747 15.7056 59.1492 15.5142C59.3224 15.3241 59.4695 15.0285 59.5919 14.6288L62.8992 2.9361L62.4825 2.07672C62.3081 1.73037 62.2221 1.42568 62.2221 1.16526C62.2221 0.627503 62.5685 0.357971 63.2638 0.357971H67.118C67.6726 0.357971 68.0932 0.485575 68.3784 0.73818C68.6661 0.98818 68.9747 1.43479 69.3055 2.07672L73.1075 9.70693L74.9044 3.43089C74.9565 3.1887 74.9825 2.98818 74.9825 2.83193C74.9825 2.60667 74.9422 2.42047 74.8628 2.27464C74.7859 2.1262 74.6779 1.97255 74.5398 1.8163C74.3484 1.59104 74.2534 1.39964 74.2534 1.24339C74.2534 1.13922 74.2612 1.0611 74.2794 1.00901C74.3484 0.766825 74.5047 0.597555 74.7482 0.503805C74.9904 0.407451 75.3549 0.357971 75.8419 0.357971H78.6805Z" fill="white"/>
<path d="M99.4077 0.357971C100.362 0.357971 100.84 0.748596 100.84 1.52985C100.84 1.77334 100.788 2.07672 100.684 2.4413L100.059 4.55068C99.8674 5.19391 99.633 5.64443 99.3556 5.90485C99.077 6.16526 98.6785 6.29547 98.1577 6.29547C97.7228 6.29547 97.3882 6.18349 97.1525 5.95693C96.9194 5.73167 96.6994 5.3762 96.491 4.88922L96.0483 3.82151C95.909 3.49209 95.7619 3.26683 95.6056 3.14443C95.4494 3.02334 95.2059 2.96214 94.8765 2.96214H94.2775L90.9702 14.6028C90.9181 14.8293 90.8921 15.0285 90.8921 15.2017C90.8921 15.4101 90.9207 15.5845 90.9806 15.7226C91.0431 15.8619 91.1343 16.009 91.2567 16.1653C91.4129 16.4088 91.491 16.608 91.491 16.7642C91.491 16.7994 91.4728 16.8866 91.439 17.0246C91.3517 17.2512 91.1812 17.4153 90.9285 17.5194C90.6785 17.6236 90.3192 17.6757 89.8504 17.6757H83.7306C83.366 17.6757 83.0822 17.6158 82.8817 17.4934C82.6838 17.3723 82.5848 17.1991 82.5848 16.9726C82.5848 16.8684 82.6108 16.7642 82.6629 16.6601C82.7319 16.5038 82.814 16.3879 82.9077 16.3111C83.0041 16.2317 83.1486 16.1314 83.34 16.009C83.6004 15.8528 83.8166 15.6796 83.991 15.4882C84.1642 15.2981 84.3114 15.0025 84.4338 14.6028L87.715 2.96214H87.116C86.7332 2.96214 86.4207 3.02334 86.1785 3.14443C85.9351 3.26683 85.6746 3.49209 85.3973 3.82151L84.5379 4.88922C84.1382 5.35797 83.7515 5.71084 83.3765 5.94651C83.0041 6.17959 82.6017 6.29547 82.1681 6.29547C81.7684 6.29547 81.4559 6.1913 81.2306 5.98297C81.0041 5.77464 80.8921 5.48818 80.8921 5.1236C80.8921 4.95042 80.9181 4.75901 80.9702 4.55068L81.6473 2.18089C81.7853 1.69521 81.9416 1.32672 82.116 1.07672C82.2892 0.824117 82.5353 0.641825 82.8556 0.529846C83.1785 0.415263 83.6343 0.357971 84.2254 0.357971H99.4077Z" fill="white"/>
<path d="M14.164 32.4881H8.07025V39.5975H4.164V21.8891H14.4244V25.4308H8.07025V28.9464H14.164V32.4881Z" fill="white"/>
<path d="M27.6261 21.8891H31.5323V32.6964C31.5323 35.0584 30.8891 36.8423 29.6052 38.0506C28.3201 39.2563 26.5232 39.8579 24.2146 39.8579C21.9047 39.8579 20.1078 39.2563 18.824 38.0506C17.5388 36.8423 16.8969 35.0584 16.8969 32.6964V21.8891H20.8032V32.1235C20.8032 33.3397 21.0401 34.2824 21.5167 34.9516C21.9959 35.6183 22.8943 35.9516 24.2146 35.9516C25.5506 35.9516 26.4542 35.6183 26.923 34.9516C27.3917 34.2824 27.6261 33.3397 27.6261 32.1235V21.8891Z" fill="white"/>
<path d="M48.1711 39.5975H44.2648L38.1711 28.5558V39.5975H34.2648V21.8891H38.1711L44.2648 32.9308V21.8891H48.1711V39.5975Z" fill="white"/>
<path d="M55.1484 36.0037H56.3202C57.3267 36.0037 58.2069 35.7693 58.9609 35.3006C59.7174 34.8318 60.3072 34.199 60.7317 33.3995C61.1588 32.6014 61.3723 31.716 61.3723 30.7433C61.3723 29.7537 61.1588 28.8657 60.7317 28.0766C60.3072 27.285 59.7174 26.66 58.9609 26.2016C58.2069 25.7407 57.3267 25.5089 56.3202 25.5089H55.1484V36.0037ZM51.2942 21.8891H56.5546C57.8046 21.8891 58.9622 22.1157 60.0286 22.5662C61.0976 23.018 62.0312 23.643 62.8306 24.4412C63.6288 25.2407 64.2486 26.1782 64.69 27.2537C65.134 28.3305 65.3567 29.4933 65.3567 30.7433C65.3567 31.9933 65.134 33.1574 64.69 34.2329C64.2486 35.3097 63.6327 36.2472 62.8411 37.0454C62.052 37.8449 61.1197 38.4699 60.0442 38.9204C58.9674 39.3722 57.8046 39.5975 56.5546 39.5975H51.2942V21.8891Z" fill="white"/>
<path d="M67.8287 39.5975V21.8891H71.735V36.0558H78.0892V39.5975H67.8287Z" fill="white"/>
<path d="M85.744 39.5975V31.1339L79.2076 21.8891H83.869L87.6972 28.0089L91.5253 21.8891H96.1867L89.6503 31.1339V39.5975H85.744Z" fill="white"/>
</svg>
